<mxfile host="65bd71144e">
    <diagram name="Page-1" id="8Ad8QudGtKUPd0H7fz8w">
        <mxGraphModel dx="888" dy="862" grid="1" gridSize="10" guides="1" tooltips="1" connect="1" arrows="1" fold="1" page="1" pageScale="1" pageWidth="827" pageHeight="1169" math="0" shadow="0">
            <root>
                <mxCell id="0"/>
                <mxCell id="1" parent="0"/>
                <mxCell id="FdZwFMyjuWn8BP6B8EDx-30" value="" style="ellipse;whiteSpace=wrap;html=1;aspect=fixed;" parent="1" vertex="1">
                    <mxGeometry x="510" y="600" width="90" height="90" as="geometry"/>
                </mxCell>
                <mxCell id="FdZwFMyjuWn8BP6B8EDx-2" value="" style="ellipse;whiteSpace=wrap;html=1;aspect=fixed;" parent="1" vertex="1">
                    <mxGeometry x="540" y="240" width="90" height="90" as="geometry"/>
                </mxCell>
                <mxCell id="FdZwFMyjuWn8BP6B8EDx-1" value="" style="ellipse;whiteSpace=wrap;html=1;aspect=fixed;" parent="1" vertex="1">
                    <mxGeometry x="550" y="250" width="70" height="70" as="geometry"/>
                </mxCell>
                <mxCell id="FdZwFMyjuWn8BP6B8EDx-4" value="" style="ellipse;whiteSpace=wrap;html=1;aspect=fixed;" parent="1" vertex="1">
                    <mxGeometry x="130" y="480" width="70" height="70" as="geometry"/>
                </mxCell>
                <mxCell id="FdZwFMyjuWn8BP6B8EDx-8" value="" style="endArrow=classic;html=1;rounded=0;exitX=1;exitY=0.5;exitDx=0;exitDy=0;entryX=0;entryY=0.5;entryDx=0;entryDy=0;" parent="1" source="FdZwFMyjuWn8BP6B8EDx-4" target="FdZwFMyjuWn8BP6B8EDx-2" edge="1">
                    <mxGeometry width="50" height="50" relative="1" as="geometry">
                        <mxPoint x="390" y="430" as="sourcePoint"/>
                        <mxPoint x="440" y="380" as="targetPoint"/>
                    </mxGeometry>
                </mxCell>
                <mxCell id="FdZwFMyjuWn8BP6B8EDx-10" value="&lt;font style=&quot;font-size: 28px;&quot;&gt;A&lt;/font&gt;" style="text;html=1;align=center;verticalAlign=middle;whiteSpace=wrap;rounded=0;" parent="1" vertex="1">
                    <mxGeometry x="330" y="360" width="60" height="30" as="geometry"/>
                </mxCell>
                <mxCell id="FdZwFMyjuWn8BP6B8EDx-11" value="&lt;font style=&quot;font-size: 28px;&quot;&gt;A&lt;/font&gt;" style="text;html=1;align=center;verticalAlign=middle;whiteSpace=wrap;rounded=0;" parent="1" vertex="1">
                    <mxGeometry x="555" y="270" width="60" height="30" as="geometry"/>
                </mxCell>
                <mxCell id="FdZwFMyjuWn8BP6B8EDx-12" value="" style="curved=1;endArrow=classic;html=1;rounded=0;entryX=0.467;entryY=-0.067;entryDx=0;entryDy=0;exitX=0.5;exitY=0;exitDx=0;exitDy=0;entryPerimeter=0;" parent="1" source="FdZwFMyjuWn8BP6B8EDx-2" target="FdZwFMyjuWn8BP6B8EDx-2" edge="1">
                    <mxGeometry width="50" height="50" relative="1" as="geometry">
                        <mxPoint x="590" y="230" as="sourcePoint"/>
                        <mxPoint x="785" y="50" as="targetPoint"/>
                        <Array as="points">
                            <mxPoint x="640" y="230"/>
                            <mxPoint x="610" y="120"/>
                            <mxPoint x="570" y="110"/>
                            <mxPoint x="550" y="210"/>
                        </Array>
                    </mxGeometry>
                </mxCell>
                <mxCell id="FdZwFMyjuWn8BP6B8EDx-13" value="" style="ellipse;whiteSpace=wrap;html=1;aspect=fixed;" parent="1" vertex="1">
                    <mxGeometry x="550" y="490" width="90" height="90" as="geometry"/>
                </mxCell>
                <mxCell id="FdZwFMyjuWn8BP6B8EDx-14" value="" style="ellipse;whiteSpace=wrap;html=1;aspect=fixed;" parent="1" vertex="1">
                    <mxGeometry x="560" y="500" width="70" height="70" as="geometry"/>
                </mxCell>
                <mxCell id="FdZwFMyjuWn8BP6B8EDx-15" value="&lt;font style=&quot;font-size: 28px;&quot;&gt;B&lt;/font&gt;" style="text;html=1;align=center;verticalAlign=middle;whiteSpace=wrap;rounded=0;" parent="1" vertex="1">
                    <mxGeometry x="370" y="470" width="60" height="30" as="geometry"/>
                </mxCell>
                <mxCell id="FdZwFMyjuWn8BP6B8EDx-16" value="&lt;font style=&quot;font-size: 28px;&quot;&gt;B&lt;/font&gt;" style="text;html=1;align=center;verticalAlign=middle;whiteSpace=wrap;rounded=0;" parent="1" vertex="1">
                    <mxGeometry x="565" y="520" width="60" height="30" as="geometry"/>
                </mxCell>
                <mxCell id="FdZwFMyjuWn8BP6B8EDx-17" value="" style="endArrow=classic;html=1;rounded=0;exitX=1;exitY=0.5;exitDx=0;exitDy=0;entryX=0;entryY=0.5;entryDx=0;entryDy=0;" parent="1" source="FdZwFMyjuWn8BP6B8EDx-4" target="FdZwFMyjuWn8BP6B8EDx-13" edge="1">
                    <mxGeometry width="50" height="50" relative="1" as="geometry">
                        <mxPoint x="240" y="435" as="sourcePoint"/>
                        <mxPoint x="550" y="295" as="targetPoint"/>
                    </mxGeometry>
                </mxCell>
                <mxCell id="FdZwFMyjuWn8BP6B8EDx-18" value="" style="curved=1;endArrow=classic;html=1;rounded=0;entryX=0.467;entryY=-0.067;entryDx=0;entryDy=0;exitX=0.5;exitY=0;exitDx=0;exitDy=0;entryPerimeter=0;" parent="1" edge="1">
                    <mxGeometry width="50" height="50" relative="1" as="geometry">
                        <mxPoint x="595" y="490" as="sourcePoint"/>
                        <mxPoint x="592" y="484" as="targetPoint"/>
                        <Array as="points">
                            <mxPoint x="650" y="480"/>
                            <mxPoint x="620" y="370"/>
                            <mxPoint x="580" y="360"/>
                            <mxPoint x="560" y="460"/>
                        </Array>
                    </mxGeometry>
                </mxCell>
                <mxCell id="FdZwFMyjuWn8BP6B8EDx-19" value="" style="endArrow=classic;html=1;rounded=0;exitX=1;exitY=0.5;exitDx=0;exitDy=0;entryX=0;entryY=0.5;entryDx=0;entryDy=0;" parent="1" source="FdZwFMyjuWn8BP6B8EDx-4" target="FdZwFMyjuWn8BP6B8EDx-22" edge="1">
                    <mxGeometry width="50" height="50" relative="1" as="geometry">
                        <mxPoint x="210" y="525" as="sourcePoint"/>
                        <mxPoint x="290" y="620" as="targetPoint"/>
                    </mxGeometry>
                </mxCell>
                <mxCell id="FdZwFMyjuWn8BP6B8EDx-22" value="" style="ellipse;whiteSpace=wrap;html=1;aspect=fixed;" parent="1" vertex="1">
                    <mxGeometry x="295" y="610" width="70" height="70" as="geometry"/>
                </mxCell>
                <mxCell id="FdZwFMyjuWn8BP6B8EDx-23" value="&lt;font style=&quot;font-size: 28px;&quot;&gt;A&lt;/font&gt;" style="text;html=1;align=center;verticalAlign=middle;whiteSpace=wrap;rounded=0;" parent="1" vertex="1">
                    <mxGeometry x="235" y="560" width="60" height="30" as="geometry"/>
                </mxCell>
                <mxCell id="FdZwFMyjuWn8BP6B8EDx-25" value="&lt;b style=&quot;color: rgb(32, 33, 34); font-family: sans-serif; text-align: start;&quot;&gt;&lt;font style=&quot;font-size: 36px; background-color: rgb(255, 255, 255);&quot;&gt;â±¯&lt;/font&gt;&lt;/b&gt;" style="ellipse;whiteSpace=wrap;html=1;aspect=fixed;" parent="1" vertex="1">
                    <mxGeometry x="520" y="610" width="70" height="70" as="geometry"/>
                </mxCell>
                <mxCell id="FdZwFMyjuWn8BP6B8EDx-26" value="&lt;font style=&quot;font-size: 28px;&quot;&gt;B&lt;/font&gt;" style="text;html=1;align=center;verticalAlign=middle;whiteSpace=wrap;rounded=0;" parent="1" vertex="1">
                    <mxGeometry x="400" y="610" width="60" height="30" as="geometry"/>
                </mxCell>
                <mxCell id="FdZwFMyjuWn8BP6B8EDx-27" value="" style="endArrow=classic;html=1;rounded=0;entryX=0;entryY=0.5;entryDx=0;entryDy=0;exitX=1;exitY=0.5;exitDx=0;exitDy=0;" parent="1" source="FdZwFMyjuWn8BP6B8EDx-22" target="FdZwFMyjuWn8BP6B8EDx-25" edge="1">
                    <mxGeometry width="50" height="50" relative="1" as="geometry">
                        <mxPoint x="370" y="645" as="sourcePoint"/>
                        <mxPoint x="460" y="745" as="targetPoint"/>
                    </mxGeometry>
                </mxCell>
                <mxCell id="FdZwFMyjuWn8BP6B8EDx-29" value="" style="curved=1;endArrow=classic;html=1;rounded=0;exitX=0.5;exitY=1;exitDx=0;exitDy=0;entryX=0.5;entryY=1;entryDx=0;entryDy=0;" parent="1" source="FdZwFMyjuWn8BP6B8EDx-25" target="FdZwFMyjuWn8BP6B8EDx-25" edge="1">
                    <mxGeometry width="50" height="50" relative="1" as="geometry">
                        <mxPoint x="510" y="760" as="sourcePoint"/>
                        <mxPoint x="560" y="710" as="targetPoint"/>
                        <Array as="points">
                            <mxPoint x="560" y="760"/>
                            <mxPoint x="510" y="710"/>
                        </Array>
                    </mxGeometry>
                </mxCell>
            </root>
        </mxGraphModel>
    </diagram>
</mxfile>